<svg width="25" height="19" viewBox="0 0 25 19" fill="none" xmlns="http://www.w3.org/2000/svg">
<path d="M11.6467 1.71254L10.0493 0.3871C4.03562 3.79537 1.21671 7.67701 0.464995 12.032C-0.0987879 15.6296 1.31067 18.4699 4.88129 18.4699C7.41832 18.4699 9.86138 16.7657 10.4252 13.9255C10.895 10.6119 9.0157 8.62375 6.6666 8.15038C7.60624 4.93146 11.5527 1.71254 11.6467 1.71254ZM19.7276 7.96104C20.7612 4.83679 24.5197 1.71254 24.6137 1.71254L23.0163 0.3871C17.0026 3.79537 14.1837 7.67701 13.432 12.032C12.8682 15.6296 14.2777 18.4699 17.8483 18.4699C20.3853 18.4699 22.8284 16.7657 23.2982 13.9255C23.862 10.6119 22.0767 8.43441 19.7276 7.96104Z" fill="#163518"/>
</svg>
