<svg width="20" height="20" viewBox="0 0 20 20" fill="none" xmlns="http://www.w3.org/2000/svg">
<path fill-rule="evenodd" clip-rule="evenodd" d="M4.1665 16.6667C3.50346 16.6667 2.86758 16.4033 2.39874 15.9345C1.9299 15.4656 1.6665 14.8297 1.6665 14.1667V5.83337C1.6665 5.17033 1.9299 4.53445 2.39874 4.06561C2.86758 3.59677 3.50346 3.33337 4.1665 3.33337H15.8332C16.4962 3.33337 17.1321 3.59677 17.6009 4.06561C18.0698 4.53445 18.3332 5.17033 18.3332 5.83337V14.1667C18.3332 14.8297 18.0698 15.4656 17.6009 15.9345C17.1321 16.4033 16.4962 16.6667 15.8332 16.6667H4.1665ZM6.354 6.85004C6.26912 6.77756 6.17053 6.72286 6.0641 6.68921C5.95767 6.65556 5.84556 6.64363 5.73443 6.65414C5.6233 6.66464 5.51541 6.69737 5.41718 6.75037C5.31894 6.80337 5.23235 6.87557 5.16255 6.96268C5.09275 7.04979 5.04116 7.15004 5.01085 7.25747C4.98053 7.3649 4.97211 7.47732 4.98608 7.58807C5.00006 7.69882 5.03613 7.80563 5.09218 7.90217C5.14822 7.9987 5.22309 8.08299 5.31234 8.15004L8.43734 10.6509C8.88074 11.0059 9.43182 11.1993 9.99984 11.1993C10.5679 11.1993 11.1189 11.0059 11.5623 10.6509L14.6873 8.15087C14.7728 8.08248 14.844 7.99792 14.8968 7.90202C14.9495 7.80612 14.9829 7.70076 14.995 7.59196C15.0071 7.48317 14.9976 7.37305 14.9671 7.26792C14.9366 7.16278 14.8857 7.06468 14.8173 6.97921C14.7489 6.89374 14.6644 6.82258 14.5685 6.76979C14.4726 6.717 14.3672 6.68362 14.2584 6.67155C14.1496 6.65948 14.0395 6.66895 13.9344 6.69943C13.8292 6.72992 13.7311 6.78081 13.6457 6.84921L10.5207 9.34921C10.3729 9.46754 10.1892 9.53202 9.99984 9.53202C9.8105 9.53202 9.62681 9.46754 9.479 9.34921L6.354 6.85004Z" fill="#FEFEFE"/>
</svg>
