<svg width="100" height="71" viewBox="0 0 100 71" fill="none" xmlns="http://www.w3.org/2000/svg">
<g clip-path="url(#clip0_1_245)">
<path d="M97.7915 10.9668C97.2179 8.84709 96.099 6.91463 94.5463 5.36183C92.9936 3.80903 91.0612 2.69008 88.9415 2.11641C81.1813 0 49.9493 0 49.9493 0C49.9493 0 18.7157 0.0640623 10.9555 2.18047C8.83582 2.75418 6.90337 3.87319 5.35064 5.42606C3.7979 6.97893 2.67907 8.91147 2.10554 11.0312C-0.241722 24.8195 -1.15227 45.8297 2.17 59.0664C2.74358 61.1861 3.86244 63.1186 5.41517 64.6714C6.9679 66.2242 8.90032 67.3431 11.02 67.9168C18.7802 70.0332 50.013 70.0332 50.013 70.0332C50.013 70.0332 81.2454 70.0332 89.0052 67.9168C91.1249 67.3432 93.0574 66.2243 94.6102 64.6715C96.163 63.1187 97.2819 61.1862 97.8555 59.0664C100.331 45.2586 101.094 24.2613 97.7915 10.9668Z" fill="#FF0000"/>
<path d="M40.0083 50.0235L65.9177 35.0164L40.0083 20.0094V50.0235Z" fill="white"/>
</g>
<defs>
<clipPath id="clip0_1_245">
<rect width="100" height="70.3125" fill="white"/>
</clipPath>
</defs>
</svg>
